<svg version="1.1" id="Layer_1" xmlns="http://www.w3.org/2000/svg" xmlns:xlink="http://www.w3.org/1999/xlink" x="0px" y="0px"
	 width="100%" viewBox="0 0 400 400" enable-background="new 0 0 400 400" xml:space="preserve">
<path fill="#01933C" opacity="1.000000" stroke="none" 
	d="
M191.000000,401.000000 
	C127.353073,401.000000 64.206139,401.000000 1.029604,401.000000 
	C1.029604,267.728058 1.029604,134.456131 1.029604,1.092094 
	C134.230225,1.092094 267.460510,1.092094 400.845398,1.092094 
	C400.845398,134.333191 400.845398,267.666565 400.845398,401.000000 
	C331.122864,401.000000 261.311432,401.000000 191.000000,401.000000 
M176.821686,169.348267 
	C173.273483,171.691803 169.725281,174.035324 165.648941,176.727692 
	C165.717911,175.147995 165.653168,174.211060 165.814041,173.314606 
	C167.813019,162.175751 169.814743,151.037186 171.878983,139.910278 
	C173.208847,132.741806 173.255524,132.751511 180.561844,132.751831 
	C204.722809,132.752899 228.884598,132.651428 253.043945,132.849289 
	C257.296417,132.884109 258.955475,132.014526 258.727295,127.401680 
	C258.332611,119.423058 258.635468,111.410789 258.596222,103.412888 
	C258.589264,101.999825 258.341095,100.587952 258.178345,98.907578 
	C255.869278,98.907578 254.052750,98.907570 252.236237,98.907585 
	C217.744400,98.907806 183.251617,99.031891 148.761734,98.772636 
	C143.680344,98.734444 141.971161,100.281273 141.118500,105.129471 
	C136.276886,132.658447 131.106522,160.129593 126.048531,187.620529 
	C124.742935,194.716599 123.439163,201.813004 122.039764,209.424805 
	C133.682938,209.424805 144.492798,209.277313 155.294662,209.506744 
	C158.954453,209.584457 161.429367,208.557648 163.828079,205.703995 
	C176.094254,191.111252 200.788925,189.289017 215.183319,201.776062 
	C226.243759,211.370911 228.594666,223.969177 226.937027,237.674850 
	C223.715775,264.308624 193.719208,278.143799 171.770401,263.210358 
	C163.400864,257.515930 159.426773,249.124969 157.814407,239.468201 
	C143.797791,239.468201 130.035629,239.468201 115.808220,239.468201 
	C115.808220,241.191696 115.727242,242.660416 115.820602,244.117950 
	C116.902435,261.006958 124.268150,274.726654 137.178284,285.438934 
	C148.509232,294.840851 161.876083,299.782440 176.287415,301.853119 
	C198.185883,304.999542 219.337555,303.068085 237.991882,289.953430 
	C262.522491,272.707581 273.119629,248.978989 269.178009,219.085831 
	C262.082428,165.273315 210.376419,153.142654 176.821686,169.348267 
z"/>
<path fill="#FBFDFC" opacity="1.000000" stroke="none" 
	d="
M177.133743,169.150055 
	C210.376419,153.142654 262.082428,165.273315 269.178009,219.085831 
	C273.119629,248.978989 262.522491,272.707581 237.991882,289.953430 
	C219.337555,303.068085 198.185883,304.999542 176.287415,301.853119 
	C161.876083,299.782440 148.509232,294.840851 137.178284,285.438934 
	C124.268150,274.726654 116.902435,261.006958 115.820602,244.117950 
	C115.727242,242.660416 115.808220,241.191696 115.808220,239.468201 
	C130.035629,239.468201 143.797791,239.468201 157.814407,239.468201 
	C159.426773,249.124969 163.400864,257.515930 171.770401,263.210358 
	C193.719208,278.143799 223.715775,264.308624 226.937027,237.674850 
	C228.594666,223.969177 226.243759,211.370911 215.183319,201.776062 
	C200.788925,189.289017 176.094254,191.111252 163.828079,205.703995 
	C161.429367,208.557648 158.954453,209.584457 155.294662,209.506744 
	C144.492798,209.277313 133.682938,209.424805 122.039764,209.424805 
	C123.439163,201.813004 124.742935,194.716599 126.048531,187.620529 
	C131.106522,160.129593 136.276886,132.658447 141.118500,105.129471 
	C141.971161,100.281273 143.680344,98.734444 148.761734,98.772636 
	C183.251617,99.031891 217.744400,98.907806 252.236237,98.907585 
	C254.052750,98.907570 255.869278,98.907578 258.178345,98.907578 
	C258.341095,100.587952 258.589264,101.999825 258.596222,103.412888 
	C258.635468,111.410789 258.332611,119.423058 258.727295,127.401680 
	C258.955475,132.014526 257.296417,132.884109 253.043945,132.849289 
	C228.884598,132.651428 204.722809,132.752899 180.561844,132.751831 
	C173.255524,132.751511 173.208847,132.741806 171.878983,139.910278 
	C169.814743,151.037186 167.813019,162.175751 165.814041,173.314606 
	C165.653168,174.211060 165.717911,175.147995 165.648941,176.727692 
	C169.725281,174.035324 173.273483,171.691803 177.133743,169.150055 
z"/>
</svg>