 <svg  version="1.0" xmlns="http://www.w3.org/2000/svg"  width="300.000000pt" height="299.000000pt" viewBox="0 0 300.000000 299.000000"  preserveAspectRatio="xMidYMid meet">  <g transform="translate(0.000000,299.000000) scale(0.100000,-0.100000)" fill="#574f7f" stroke="none"> <path d="M0 1495 l0 -1495 1500 0 1500 0 0 1495 0 1495 -1500 0 -1500 0 0 -1495z m1203 880 c55 -93 108 -183 118 -200 10 -16 22 -37 26 -45 4 -8 24 -43 45 -78 21 -34 38 -64 38 -67 0 -7 91 -155 95 -155 2 0 28 39 57 86 29 47 65 105 79 127 14 23 79 128 144 232 64 105 129 208 144 230 l27 40 262 3 c186 2 262 -1 262 -9 0 -6 -62 -99 -137 -206 -76 -107 -148 -211 -161 -230 -24 -36 -135 -189 -152 -210 -6 -7 -10 -15 -10 -18 0 -3 -4 -11 -10 -18 -25 -31 -132 -180 -156 -219 -15 -24 -30 -45 -33 -48 -4 -3 -14 -18 -24 -33 l-18 -28 59 -82 c32 -45 76 -108 97 -140 22 -31 57 -81 78 -110 20 -28 76 -108 122 -177 47 -69 117 -170 156 -225 39 -55 86 -125 106 -155 20 -30 49 -71 64 -91 16 -20 29 -42 29 -48 0 -8 -79 -11 -268 -11 l-268 0 -129 203 c-71 111 -171 270 -223 352 -52 83 -100 155 -106 162 -8 9 -37 -31 -116 -164 -58 -97 -107 -181 -109 -187 -2 -6 -7 -13 -10 -16 -7 -6 -18 -24 -70 -115 -22 -38 -62 -106 -89 -150 l-48 -80 -277 -3 c-152 -1 -277 0 -277 2 0 6 94 144 150 223 25 33 52 71 60 83 8 13 46 66 84 119 38 52 80 114 94 136 14 22 28 42 32 45 14 11 293 415 293 425 0 5 -79 129 -176 274 -98 145 -177 267 -177 271 0 5 -4 10 -8 12 -8 3 -203 293 -211 313 -2 6 -7 12 -10 15 -15 12 -81 116 -81 128 0 10 58 12 267 10 l267 -3 99 -170z"/> </g> </svg> 