<svg version="1.1" id="Layer_1" xmlns="http://www.w3.org/2000/svg" xmlns:xlink="http://www.w3.org/1999/xlink" x="0px" y="0px"
	 width="100%" viewBox="0 0 255 290" enable-background="new 0 0 255 290" xml:space="preserve">
<path fill="#00ACD0" opacity="1.000000" stroke="none" 
	d="
M1.000000,97.000000 
	C1.000000,64.666672 1.000000,32.833340 1.000000,1.000009 
	C85.999985,1.000006 170.999969,1.000006 255.999969,1.000003 
	C255.999969,97.666634 255.999969,194.333267 255.999985,290.999939 
	C171.000031,290.999939 86.000069,290.999939 1.000053,290.999969 
	C1.000000,226.500000 1.000000,162.000000 1.000000,97.000000 
M108.250198,250.298096 
	C108.410904,250.536774 108.592522,250.758286 109.560776,251.096756 
	C110.076485,251.146637 110.592201,251.196518 111.831619,251.563828 
	C117.273560,251.715012 122.717384,252.034836 128.156952,251.974014 
	C134.736694,251.900436 141.312820,251.504669 148.514343,251.056885 
	C149.002472,250.645782 149.490601,250.234695 150.022491,249.417587 
	C150.022491,249.417587 150.015350,249.009277 150.006454,249.060287 
	C150.006454,249.060287 150.057831,249.053726 150.555542,248.877899 
	C150.603592,248.560257 150.651657,248.242599 150.743271,246.998215 
	C150.744263,190.671753 150.740662,134.345291 150.762573,78.018837 
	C150.763474,75.700813 151.004044,73.382881 151.502014,71.060143 
	C151.502014,71.060143 151.870865,71.061531 152.824326,71.068398 
	C169.815643,71.063957 186.807190,71.099266 203.797989,71.003777 
	C205.875778,70.992096 207.949600,70.279091 210.071594,69.462418 
	C210.071594,69.462418 210.040573,69.032372 210.020264,69.020508 
	C210.020264,69.020508 210.032837,69.016518 210.514008,68.839348 
	C210.548370,68.531258 210.582718,68.223160 210.669418,66.990128 
	C210.643524,55.021702 210.617630,43.053276 210.729462,30.606310 
	C210.618896,30.241323 210.373383,30.044796 210.000000,29.998938 
	C210.000000,29.998938 209.985703,30.012606 210.007706,29.585794 
	C210.007706,29.585794 209.940781,29.163719 209.297821,28.640978 
	C207.505753,28.413425 205.713837,27.988369 203.921616,27.987085 
	C153.902130,27.951265 103.882614,27.945568 53.863190,28.007494 
	C51.959145,28.009853 50.055988,28.733944 48.074223,29.753269 
	C48.134533,30.168709 48.194843,30.584150 48.111050,31.927052 
	C48.154640,44.273106 48.198227,56.619164 48.081776,69.430763 
	C48.081776,69.430763 48.123810,69.921196 48.779377,70.408974 
	C50.070602,70.623718 51.361717,71.024437 52.653065,71.025192 
	C70.710114,71.035683 88.767189,70.991554 107.027771,71.494400 
	C107.335831,71.695717 107.643890,71.897041 108.006706,73.021927 
	C108.013191,100.636108 108.004700,128.250305 108.030151,155.864471 
	C108.058678,186.802872 108.117928,217.741241 108.164490,248.717026 
	C108.164490,248.717026 108.195938,248.736816 108.031631,249.109940 
	C108.005310,249.380676 108.006279,249.651306 108.250198,250.298096 
z"/>
<path fill="#FFFFFF" opacity="1.000000" stroke="none" 
	d="
M151.132950,71.064911 
	C151.004044,73.382881 150.763474,75.700813 150.762573,78.018837 
	C150.740662,134.345291 150.744263,190.671753 150.545776,247.604477 
	C150.149323,248.456543 150.052505,248.737534 150.057831,249.053726 
	C150.057831,249.053726 150.006454,249.060287 149.541962,249.005112 
	C135.439575,248.859833 121.801689,248.769730 108.163803,248.679626 
	C108.117928,217.741241 108.058678,186.802872 108.030151,155.864471 
	C108.004700,128.250305 108.013191,100.636108 108.008240,72.277283 
	C108.020882,71.343628 108.031990,71.154617 107.982132,70.696701 
	C107.661392,69.949150 107.401611,69.470528 106.664948,68.962540 
	C87.069443,68.938438 67.950813,68.943687 48.684284,68.941696 
	C48.536381,68.934456 48.241814,68.965218 48.241814,68.965218 
	C48.198227,56.619164 48.154640,44.273106 48.334152,31.389233 
	C48.744480,30.720232 48.894852,30.555420 49.360237,30.285610 
	C50.857056,29.929741 52.002003,29.645239 53.485382,29.340984 
	C54.501415,29.334524 55.179016,29.347815 56.234444,29.551188 
	C58.098557,29.859392 59.584793,30.080145 61.071125,30.080742 
	C106.639595,30.099043 152.208069,30.104048 197.776520,30.064884 
	C199.565781,30.063345 201.354660,29.607939 203.537323,29.344013 
	C205.244217,29.339119 206.557526,29.354221 208.091476,29.552006 
	C208.869995,29.827326 209.427841,29.919966 209.985703,30.012606 
	C209.985703,30.012606 210.000000,29.998938 210.017731,30.224430 
	C210.115158,30.754192 210.300583,30.965836 210.591736,31.084848 
	C210.617630,43.053276 210.643524,55.021702 210.468002,67.586395 
	C210.080063,68.430176 210.002136,68.708122 210.032837,69.016518 
	C210.032837,69.016518 210.020264,69.020508 209.560211,68.988800 
	C191.320969,68.928986 173.541702,68.871330 155.762756,68.924812 
	C154.220886,68.929443 152.681229,69.667374 151.093750,70.314743 
	C151.075638,70.731506 151.104294,70.898209 151.132950,71.064911 
z"/>
<path fill="#30A9C1" opacity="1.000000" stroke="none" 
	d="
M55.856613,29.361107 
	C55.179016,29.347815 54.501415,29.334524 53.068192,29.222443 
	C51.162861,29.157045 50.013157,29.190439 48.688408,29.179438 
	C48.513355,29.135044 48.152420,29.121714 48.152420,29.121716 
	C50.055988,28.733944 51.959145,28.009853 53.863190,28.007494 
	C103.882614,27.945568 153.902130,27.951265 203.921616,27.987085 
	C205.713837,27.988369 207.505753,28.413425 209.268616,28.873306 
	C208.783203,29.193531 208.327011,29.281427 207.870819,29.369324 
	C206.557526,29.354221 205.244217,29.339119 203.070023,29.223434 
	C154.246292,29.089260 106.283447,29.053963 58.320606,29.036245 
	C57.499317,29.035942 56.677944,29.248093 55.856613,29.361107 
z"/>
<path fill="#269EB7" opacity="1.000000" stroke="none" 
	d="
M106.824257,70.960724 
	C88.767189,70.991554 70.710114,71.035683 52.653065,71.025192 
	C51.361717,71.024437 50.070602,70.623718 48.640869,70.171738 
	C48.502361,69.934509 48.877205,69.864433 49.353470,69.921242 
	C68.872986,70.024117 87.916229,70.070183 107.015625,70.350601 
	C107.071762,70.584953 107.208450,71.047134 107.112373,71.025665 
	C107.016296,71.004204 106.824257,70.960724 106.824257,70.960724 
z"/>
<path fill="#9BEDFD" opacity="1.000000" stroke="none" 
	d="
M151.140533,70.064674 
	C152.681229,69.667374 154.220886,68.929443 155.762756,68.924812 
	C173.541702,68.871330 191.320969,68.928986 209.570374,68.994736 
	C210.040573,69.032372 210.071594,69.462418 209.578613,69.725784 
	C190.037857,70.051346 170.990097,70.113548 151.744965,70.125809 
	C151.547592,70.075874 151.140533,70.064674 151.140533,70.064674 
z"/>
<path fill="#269EB7" opacity="1.000000" stroke="none" 
	d="
M151.942337,70.175751 
	C170.990097,70.113548 190.037857,70.051346 209.555450,69.940125 
	C207.949600,70.279091 205.875778,70.992096 203.797989,71.003777 
	C186.807190,71.099266 169.815643,71.063957 152.372528,70.843636 
	C151.920715,70.618874 151.942337,70.175751 151.942337,70.175751 
z"/>
<path fill="#30A9C1" opacity="1.000000" stroke="none" 
	d="
M149.978729,249.823608 
	C149.490601,250.234695 149.002472,250.645782 147.749298,251.110855 
	C135.025482,251.192017 123.066696,251.219208 111.107910,251.246414 
	C110.592201,251.196518 110.076485,251.146637 109.237656,250.842590 
	C108.914528,250.588409 109.029305,250.211929 108.958862,250.130371 
	C108.888420,250.048828 108.907242,249.834122 109.376152,249.912323 
	C123.222954,249.934875 136.600845,249.879227 149.978729,249.823608 
z"/>
<path fill="#C0FFFF" opacity="1.000000" stroke="none" 
	d="
M150.000610,249.620590 
	C136.600845,249.879227 123.222954,249.934875 109.210678,249.630096 
	C108.449501,249.092041 108.322716,248.914429 108.195938,248.736816 
	C108.195938,248.736816 108.164490,248.717026 108.164146,248.698318 
	C121.801689,248.769730 135.439575,248.859833 149.546417,248.979614 
	C150.015350,249.009277 150.022491,249.417587 150.000610,249.620590 
z"/>
<path fill="#0CA8C7" opacity="1.000000" stroke="none" 
	d="
M111.469765,251.405121 
	C123.066696,251.219208 135.025482,251.192017 147.437393,251.206573 
	C141.312820,251.504669 134.736694,251.900436 128.156952,251.974014 
	C122.717384,252.034836 117.273560,251.715012 111.469765,251.405121 
z"/>
<path fill="#A7E9F6" opacity="1.000000" stroke="none" 
	d="
M208.091476,29.552004 
	C208.327011,29.281427 208.783203,29.193531 209.590088,29.134678 
	C209.940781,29.163719 210.007706,29.585794 209.996704,29.799200 
	C209.427841,29.919966 208.869995,29.827326 208.091476,29.552004 
z"/>
<path fill="#E0F5FA" opacity="1.000000" stroke="none" 
	d="
M48.113319,29.437492 
	C48.152420,29.121714 48.513355,29.135044 48.724640,29.462830 
	C48.960072,29.979403 48.984219,30.168188 49.008366,30.356976 
	C48.894852,30.555420 48.744480,30.720232 48.406204,30.925501 
	C48.194843,30.584150 48.134533,30.168709 48.113319,29.437492 
z"/>
<path fill="#E0F5FA" opacity="1.000000" stroke="none" 
	d="
M48.877205,69.864433 
	C48.877205,69.864433 48.502361,69.934509 48.313087,69.927856 
	C48.123810,69.921196 48.081776,69.430763 48.161797,69.197990 
	C48.241814,68.965218 48.536381,68.934456 48.714294,69.169937 
	C48.892204,69.405411 48.877205,69.864433 48.877205,69.864433 
z"/>
<path fill="#A9E3EF" opacity="1.000000" stroke="none" 
	d="
M210.273422,68.927933 
	C210.002136,68.708122 210.080063,68.430176 210.441833,68.048874 
	C210.582718,68.223160 210.548370,68.531258 210.273422,68.927933 
z"/>
<path fill="#0CA8C7" opacity="1.000000" stroke="none" 
	d="
M151.744965,70.125809 
	C151.942337,70.175751 151.920715,70.618874 151.895782,70.840202 
	C151.870865,71.061531 151.502014,71.060143 151.317474,71.062531 
	C151.104294,70.898209 151.075638,70.731506 151.093750,70.314743 
	C151.140533,70.064674 151.547592,70.075874 151.744965,70.125809 
z"/>
<path fill="#A9E3EF" opacity="1.000000" stroke="none" 
	d="
M210.660599,30.845579 
	C210.300583,30.965836 210.115158,30.754192 210.014175,30.233326 
	C210.373383,30.044796 210.618896,30.241323 210.660599,30.845579 
z"/>
<path fill="#E0F5FA" opacity="1.000000" stroke="none" 
	d="
M108.043091,70.965614 
	C108.031990,71.154617 108.020882,71.343628 107.980865,71.815506 
	C107.643890,71.897041 107.335831,71.695717 106.926010,71.227562 
	C106.824257,70.960724 107.016296,71.004204 107.321091,71.005936 
	C107.625877,71.007668 108.043091,70.965614 108.043091,70.965614 
z"/>
<path fill="#A9E3EF" opacity="1.000000" stroke="none" 
	d="
M150.306686,248.965820 
	C150.052505,248.737534 150.149323,248.456543 150.524017,248.067841 
	C150.651657,248.242599 150.603592,248.560257 150.306686,248.965820 
z"/>
<path fill="#E0F5FA" opacity="1.000000" stroke="none" 
	d="
M108.113785,248.923370 
	C108.322716,248.914429 108.449501,249.092041 108.741760,249.551895 
	C108.907242,249.834122 108.888420,250.048828 108.711777,250.052811 
	C108.368271,250.011810 108.201416,249.966827 108.034554,249.921829 
	C108.006279,249.651306 108.005310,249.380676 108.113785,248.923370 
z"/>
<path fill="#0CA8C7" opacity="1.000000" stroke="none" 
	d="
M108.142380,250.109955 
	C108.201416,249.966827 108.368271,250.011810 108.782211,250.134369 
	C109.029305,250.211929 108.914528,250.588409 108.854797,250.775513 
	C108.592522,250.758286 108.410904,250.536774 108.142380,250.109955 
z"/>
<path fill="#A7E9F6" opacity="1.000000" stroke="none" 
	d="
M56.234444,29.551188 
	C56.677944,29.248093 57.499317,29.035942 58.320606,29.036245 
	C106.283447,29.053963 154.246292,29.089260 202.676422,29.243435 
	C201.354660,29.607939 199.565781,30.063345 197.776520,30.064884 
	C152.208069,30.104048 106.639595,30.099043 61.071125,30.080742 
	C59.584793,30.080145 58.098557,29.859392 56.234444,29.551188 
z"/>
<path fill="#9BEDFD" opacity="1.000000" stroke="none" 
	d="
M49.353470,69.921242 
	C48.877205,69.864433 48.892204,69.405411 48.862198,69.177170 
	C67.950813,68.943687 87.069443,68.938438 106.625122,69.244522 
	C107.027939,69.742645 106.993713,69.929443 106.959480,70.116241 
	C87.916229,70.070183 68.872986,70.024117 49.353470,69.921242 
z"/>
<path fill="#A7E9F6" opacity="1.000000" stroke="none" 
	d="
M49.360237,30.285610 
	C48.984219,30.168188 48.960072,29.979403 48.899693,29.507223 
	C50.013157,29.190439 51.162861,29.157045 52.729755,29.242195 
	C52.002003,29.645239 50.857056,29.929741 49.360237,30.285610 
z"/>
<path fill="#E7FFFF" opacity="1.000000" stroke="none" 
	d="
M107.015625,70.350601 
	C106.993713,69.929443 107.027939,69.742645 107.101990,69.273880 
	C107.401611,69.470528 107.661392,69.949150 107.982132,70.696701 
	C108.043091,70.965614 107.625877,71.007668 107.417160,71.027405 
	C107.208450,71.047134 107.071762,70.584953 107.015625,70.350601 
z"/>
</svg>