<svg version="1.1" id="Layer_1" xmlns="http://www.w3.org/2000/svg" xmlns:xlink="http://www.w3.org/1999/xlink" x="0px" y="0px"
	 width="100%" viewBox="0 0 275 265" enable-background="new 0 0 275 265" xml:space="preserve">
<path fill="#FED202" opacity="1.000000" stroke="none" 
	d="
M155.000000,266.000000 
	C103.333336,266.000000 52.166679,266.000000 1.000014,266.000000 
	C1.000009,177.666687 1.000009,89.333366 1.000005,1.000037 
	C92.666634,1.000025 184.333267,1.000025 275.999939,1.000013 
	C275.999939,89.333290 275.999939,177.666580 275.999969,265.999939 
	C235.833328,266.000000 195.666672,266.000000 155.000000,266.000000 
M199.749527,189.308762 
	C211.490219,144.015793 223.230927,98.722824 235.095947,52.950195 
	C225.310410,52.950195 216.322571,53.112408 207.345596,52.870571 
	C203.741577,52.773479 202.231613,53.714161 201.391342,57.492294 
	C194.419876,88.838249 187.183212,120.125282 179.991226,151.421982 
	C179.622375,153.027069 178.928879,154.557571 177.914261,157.485779 
	C176.952499,154.668961 176.429871,153.464828 176.128433,152.207672 
	C168.563522,120.658966 160.931351,89.125702 153.595062,57.523777 
	C152.714127,53.728996 151.225113,52.757137 147.630600,52.877850 
	C140.306992,53.123791 132.963303,53.134926 125.640572,52.879223 
	C122.352509,52.764412 121.022667,53.844357 120.257820,57.026142 
	C114.192558,82.257721 107.971359,107.451904 101.764595,132.649323 
	C99.852158,140.413193 97.836090,148.151535 95.867470,155.901550 
	C94.673203,155.083893 94.350311,154.346985 94.177628,153.576416 
	C91.049187,139.616425 87.950325,125.649796 84.821823,111.689819 
	C80.710754,93.345451 76.624962,74.995041 72.365913,56.685001 
	C72.042496,55.294613 70.455421,53.164299 69.408890,53.136421 
	C59.302822,52.867249 49.186718,52.974979 38.409111,52.974979 
	C51.712078,105.025108 64.839577,156.388657 77.969383,207.761261 
	C89.298111,207.761261 100.257050,207.761261 111.594978,207.761261 
	C119.770302,173.287186 127.922684,138.909821 136.075073,104.532448 
	C136.410629,104.570442 136.746201,104.608444 137.081772,104.646439 
	C145.365540,139.044037 153.649323,173.441650 161.959274,207.947937 
	C172.241089,207.947937 182.067825,208.074646 191.883255,207.798721 
	C193.214020,207.761307 195.191376,205.941147 195.660095,204.541504 
	C197.240097,199.823471 198.274551,194.922745 199.749527,189.308762 
M166.697586,40.001770 
	C164.785507,40.001770 162.873428,40.001770 160.961349,40.001770 
	C160.985077,40.214127 161.008804,40.426483 161.032532,40.638840 
	C177.007629,40.638840 192.982727,40.638840 208.957840,40.638840 
	C208.956284,40.426483 208.954727,40.214127 208.953171,40.001770 
	C195.185104,40.001770 181.417023,40.001770 166.697586,40.001770 
M108.624306,41.053829 
	C92.757355,41.053829 76.890396,41.053829 61.023445,41.053829 
	C61.027111,41.217960 61.030777,41.382095 61.034447,41.546227 
	C77.108650,41.546227 93.182846,41.546227 108.624306,41.053829 
z"/>
<path fill="#070301" opacity="1.000000" stroke="none" 
	d="
M199.633606,189.700317 
	C198.274551,194.922745 197.240097,199.823471 195.660095,204.541504 
	C195.191376,205.941147 193.214020,207.761307 191.883255,207.798721 
	C182.067825,208.074646 172.241089,207.947937 161.959274,207.947937 
	C153.649323,173.441650 145.365540,139.044037 137.081772,104.646439 
	C136.746201,104.608444 136.410629,104.570442 136.075073,104.532448 
	C127.922684,138.909821 119.770302,173.287186 111.594978,207.761261 
	C100.257050,207.761261 89.298111,207.761261 77.969383,207.761261 
	C64.839577,156.388657 51.712078,105.025108 38.409111,52.974979 
	C49.186718,52.974979 59.302822,52.867249 69.408890,53.136421 
	C70.455421,53.164299 72.042496,55.294613 72.365913,56.685001 
	C76.624962,74.995041 80.710754,93.345451 84.821823,111.689819 
	C87.950325,125.649796 91.049187,139.616425 94.177628,153.576416 
	C94.350311,154.346985 94.673203,155.083893 95.867470,155.901550 
	C97.836090,148.151535 99.852158,140.413193 101.764595,132.649323 
	C107.971359,107.451904 114.192558,82.257721 120.257820,57.026142 
	C121.022667,53.844357 122.352509,52.764412 125.640572,52.879223 
	C132.963303,53.134926 140.306992,53.123791 147.630600,52.877850 
	C151.225113,52.757137 152.714127,53.728996 153.595062,57.523777 
	C160.931351,89.125702 168.563522,120.658966 176.128433,152.207672 
	C176.429871,153.464828 176.952499,154.668961 177.914261,157.485779 
	C178.928879,154.557571 179.622375,153.027069 179.991226,151.421982 
	C187.183212,120.125282 194.419876,88.838249 201.391342,57.492294 
	C202.231613,53.714161 203.741577,52.773479 207.345596,52.870571 
	C216.322571,53.112408 225.310410,52.950195 235.095947,52.950195 
	C223.230927,98.722824 211.490219,144.015793 199.633606,189.700317 
z"/>
<path fill="#000000" opacity="1.000000" stroke="none" 
	d="
M167.173279,40.001770 
	C181.417023,40.001770 195.185104,40.001770 208.953171,40.001770 
	C208.954727,40.214127 208.956284,40.426483 208.957840,40.638840 
	C192.982727,40.638840 177.007629,40.638840 161.032532,40.638840 
	C161.008804,40.426483 160.985077,40.214127 160.961349,40.001770 
	C162.873428,40.001770 164.785507,40.001770 167.173279,40.001770 
z"/>
<path fill="#000000" opacity="1.000000" stroke="none" 
	d="
M108.940674,41.300026 
	C93.182846,41.546227 77.108650,41.546227 61.034447,41.546227 
	C61.030777,41.382095 61.027111,41.217960 61.023445,41.053829 
	C76.890396,41.053829 92.757355,41.053829 108.940674,41.300026 
z"/>
</svg>