<svg version="1.1" id="Layer_1" xmlns="http://www.w3.org/2000/svg" xmlns:xlink="http://www.w3.org/1999/xlink" x="0px" y="0px"
	 width="100%" viewBox="0 0 400 400" enable-background="new 0 0 400 400" xml:space="preserve">
<path fill="#EE352E" opacity="1.000000" stroke="none" 
	d="
M193.000000,401.000000 
	C128.686615,401.000000 64.873222,401.000000 1.029917,401.000000 
	C1.029917,267.728271 1.029917,134.456543 1.029917,1.092406 
	C134.230011,1.092406 267.460114,1.092406 400.845093,1.092406 
	C400.845093,134.333191 400.845093,267.666565 400.845093,401.000000 
	C331.789948,401.000000 262.644989,401.000000 193.000000,401.000000 
M222.386429,163.701599 
	C211.027573,176.635345 195.634796,176.085999 179.730133,176.110077 
	C179.730133,185.496750 179.640045,194.763733 179.897690,204.021057 
	C179.918762,204.778030 182.267914,205.990921 183.608078,206.100327 
	C189.407394,206.573715 195.275726,206.363922 201.041412,207.052170 
	C212.540436,208.424835 223.597992,211.894318 228.257126,223.547165 
	C232.844238,235.019928 232.121490,246.839096 223.960037,257.088379 
	C214.015961,269.576294 193.255630,273.702057 177.856171,266.196869 
	C164.407837,259.642609 158.523605,247.963654 157.109818,233.726074 
	C156.728378,229.884964 155.498138,228.458572 151.629257,228.662537 
	C146.478882,228.934067 141.303528,228.732315 136.138901,228.732742 
	C128.863480,228.733322 121.588043,228.732864 114.461876,228.732864 
	C114.113998,229.839920 113.843880,230.301437 113.841393,230.764389 
	C113.691223,258.803741 124.259399,281.354675 149.463455,294.819122 
	C173.863602,307.854126 200.143127,308.673126 226.166733,300.696686 
	C255.194458,291.799469 274.406677,273.457672 277.562653,241.434845 
	C279.825073,218.478317 267.490417,198.256165 245.848434,190.495255 
	C244.260849,189.925934 242.702072,189.276276 241.009872,188.617233 
	C241.544250,187.952118 241.696457,187.593018 241.960770,187.464584 
	C242.853882,187.030563 243.787674,186.680542 244.704330,186.294601 
	C256.025909,181.527939 263.380463,173.005402 266.916626,161.475266 
	C274.000793,138.376495 266.437988,116.741501 246.614487,102.604034 
	C228.246979,89.504936 207.420166,85.181107 185.441299,87.485184 
	C155.229965,90.652283 133.396317,105.688934 123.186554,135.231110 
	C120.491631,143.028946 118.732864,151.124176 119.356995,159.993866 
	C132.281036,159.993866 144.742935,159.862625 157.199036,160.073532 
	C160.952652,160.137100 161.885864,158.841019 162.129730,155.237915 
	C163.713043,131.843842 179.862671,119.286247 202.984970,123.203445 
	C222.834457,126.566200 232.743622,146.469467 222.386429,163.701599 
z"/>
<path fill="#FFFCFB" opacity="1.000000" stroke="none" 
	d="
M222.624161,163.414642 
	C232.743622,146.469467 222.834457,126.566200 202.984970,123.203445 
	C179.862671,119.286247 163.713043,131.843842 162.129730,155.237915 
	C161.885864,158.841019 160.952652,160.137100 157.199036,160.073532 
	C144.742935,159.862625 132.281036,159.993866 119.356995,159.993866 
	C118.732864,151.124176 120.491631,143.028946 123.186554,135.231110 
	C133.396317,105.688934 155.229965,90.652283 185.441299,87.485184 
	C207.420166,85.181107 228.246979,89.504936 246.614487,102.604034 
	C266.437988,116.741501 274.000793,138.376495 266.916626,161.475266 
	C263.380463,173.005402 256.025909,181.527939 244.704330,186.294601 
	C243.787674,186.680542 242.853882,187.030563 241.960770,187.464584 
	C241.696457,187.593018 241.544250,187.952118 241.009872,188.617233 
	C242.702072,189.276276 244.260849,189.925934 245.848434,190.495255 
	C267.490417,198.256165 279.825073,218.478317 277.562653,241.434845 
	C274.406677,273.457672 255.194458,291.799469 226.166733,300.696686 
	C200.143127,308.673126 173.863602,307.854126 149.463455,294.819122 
	C124.259399,281.354675 113.691223,258.803741 113.841393,230.764389 
	C113.843880,230.301437 114.113998,229.839920 114.461876,228.732864 
	C121.588043,228.732864 128.863480,228.733322 136.138901,228.732742 
	C141.303528,228.732315 146.478882,228.934067 151.629257,228.662537 
	C155.498138,228.458572 156.728378,229.884964 157.109818,233.726074 
	C158.523605,247.963654 164.407837,259.642609 177.856171,266.196869 
	C193.255630,273.702057 214.015961,269.576294 223.960037,257.088379 
	C232.121490,246.839096 232.844238,235.019928 228.257126,223.547165 
	C223.597992,211.894318 212.540436,208.424835 201.041412,207.052170 
	C195.275726,206.363922 189.407394,206.573715 183.608078,206.100327 
	C182.267914,205.990921 179.918762,204.778030 179.897690,204.021057 
	C179.640045,194.763733 179.730133,185.496750 179.730133,176.110077 
	C195.634796,176.085999 211.027573,176.635345 222.624161,163.414642 
z"/>
</svg>